<svg width="102" height="104" viewBox="0 0 102 104" fill="none" xmlns="http://www.w3.org/2000/svg">
<path id="buy-home 1 (Traced)" fill-rule="evenodd" clip-rule="evenodd" d="M56.423 0.288101C53.8613 0.979996 53.8156 1.02064 39.0139 15.7599C30.0399 24.696 24.8709 29.9892 24.595 30.5254C24.0276 31.6284 23.9893 33.7016 24.5177 34.714C25.4325 36.4664 26.85 37.3643 28.9392 37.5149L30.3047 37.6134V42.3466V47.0797L30.8377 47.5007C31.5387 48.0546 32.1765 48.0331 32.8726 47.4318L33.4402 46.9417L33.4991 41.0818L33.5579 35.222L46.0411 22.6817L58.5244 10.1412L71.1117 22.7358L83.6991 35.3303L83.755 45.7861L83.8108 56.2422L84.2546 56.688C84.8453 57.2809 85.7959 57.2679 86.4422 56.6579L86.9463 56.1822V46.9043V37.6264L88.1095 37.622C89.5816 37.6163 90.5421 37.206 91.5661 36.1461C92.4616 35.2193 93.0161 33.8585 93.013 32.595C93.0086 30.7105 92.923 30.614 77.9148 15.5821C68.4146 6.0669 63.5042 1.28886 62.9303 1.00153C60.9165 -0.00613208 58.4948 -0.271714 56.423 0.288101ZM76.4272 2.93193C75.5053 3.33244 74.4773 4.33279 73.9406 5.35163C73.6297 5.94233 73.5101 6.54421 73.5032 7.5535C73.4951 8.77412 73.5518 8.98972 73.9715 9.3315C74.574 9.82202 75.439 9.82954 76.0293 9.34938C76.3608 9.07973 76.5297 8.65017 76.6479 7.77499C76.8765 6.08356 77.2038 5.85963 79.4486 5.85963C82.1844 5.85963 82.0586 5.56052 82.1322 12.2301L82.1925 17.681L82.7601 18.1711C83.4849 18.7969 84.2026 18.7941 84.8314 18.1624L85.328 17.6637V11.9583C85.328 7.63052 85.262 6.09514 85.0553 5.59913C84.6129 4.53904 83.6957 3.59944 82.6053 3.08941C81.7264 2.67813 81.2785 2.61331 79.3604 2.61839C77.8317 2.62246 76.9135 2.7206 76.4272 2.93193ZM61.3846 3.90891C62.1094 4.30515 66.2877 8.37219 76.0877 18.2201C88.4603 30.653 89.7784 32.0399 89.7784 32.6233C89.7784 33.6118 89.0042 34.395 88.0539 34.3677C87.3202 34.347 86.7398 33.7951 73.7158 20.7336C66.2507 13.2467 59.9438 7.0201 59.7009 6.89676C59.1333 6.60862 57.9155 6.60862 57.3478 6.89676C57.1049 7.0201 50.7885 13.2563 43.3116 20.7548C30.1975 33.9071 29.6913 34.3878 28.9866 34.3679C27.7139 34.3316 26.9365 33.0859 27.51 32.0015C27.9249 31.2163 55.0079 4.33726 55.7969 3.92741C56.957 3.32472 57.4468 3.22596 58.9425 3.2922C60.0349 3.34057 60.611 3.48606 61.3846 3.90891ZM51.4031 38.7808C49.6788 39.1376 48.1658 40.3355 47.3615 41.9806C46.8485 43.0299 46.7844 43.3969 46.7198 45.6445C46.6731 47.2713 46.7322 48.3456 46.889 48.7258C47.1738 49.4169 48.0311 49.8284 48.7881 49.6376C49.7407 49.3974 49.927 48.8689 49.9274 46.4034C49.9276 43.9136 50.1837 43.1019 51.2061 42.3484C51.7563 41.943 52.0203 41.9276 58.3874 41.9276C67.4885 41.9276 66.9195 41.4805 66.9195 48.6293V53.4396L67.5108 54.0336C68.2394 54.7655 68.7288 54.782 69.5337 54.1015L70.1561 53.5754V48.5496C70.1561 42.8314 70.0493 42.2506 68.7176 40.7311C68.2708 40.2211 67.4054 39.5648 66.7605 39.2465L65.6046 38.6764L58.9289 38.6406C55.2574 38.6209 51.8706 38.6841 51.4031 38.7808ZM34.654 50.4794C32.6509 50.9271 31.1725 51.5669 28.7369 53.0401C24.9798 55.3127 20.2917 59.4515 19.4317 61.2545C19.1726 61.7982 19.1693 61.9693 19.4091 62.4719C19.5626 62.7935 19.9259 63.1711 20.2164 63.3111C21.0294 63.7024 21.7759 63.3188 22.921 61.9218C25.1895 59.154 30.2098 55.4194 33.3559 54.1592C38.048 52.2798 43.2214 53.2773 47.509 56.8881C49.398 58.479 51.4743 59.5921 53.1406 59.9077C53.74 60.0211 56.744 60.116 59.8162 60.1184C64.8215 60.1225 65.4864 60.1619 66.2114 60.4992C68.4668 61.5481 69.4087 64.2913 68.2445 66.4208C67.9718 66.9195 67.6338 67.5779 67.493 67.8839C66.9484 69.0683 66.47 69.1464 59.0625 69.2579L52.3181 69.3595L51.9317 69.8393C51.3774 70.5275 51.45 71.2255 52.1489 71.9275L52.7528 72.5341L59.482 72.464C67.0338 72.3854 67.1017 72.374 69.0981 70.8599C70.0068 70.1709 70.6305 69.9155 72.829 69.3331C79.4506 67.5785 84.4893 65.5855 88.9692 62.9488C91.7356 61.3205 94.297 61.1173 96.7516 62.331C99.0879 63.4864 99.4481 64.515 98.0032 65.9057C95.5864 68.2318 88.1554 73.3672 82.6982 76.4825C75.3574 80.6729 70.7834 82.3017 64.7954 82.8579C63.5715 82.9714 57.3359 83.2043 50.9384 83.3754C44.541 83.5465 38.945 83.7363 38.5028 83.797C38.0605 83.8578 37.5372 84.0547 37.3396 84.2343C36.81 84.7157 36.8747 85.8325 37.4666 86.4273C37.9088 86.8715 38.0788 86.9072 39.3378 86.8209C40.0994 86.7686 45.8204 86.59 52.051 86.424C58.2816 86.258 63.9255 86.0723 64.5931 86.0113C70.6956 85.4539 75.1497 84.0512 81.1636 80.7929C86.7887 77.7454 91.7773 74.5781 96.454 71.0853C101.514 67.3062 102.01 66.6982 102 64.2862C101.993 62.5712 101.688 61.9057 100.379 60.7489C98.5314 59.1148 96.1931 58.2914 93.3903 58.2876C91.2228 58.2845 89.4513 58.7929 87.3469 60.0221C83.7463 62.125 78.5217 64.287 73.8706 65.5989C72.6791 65.935 71.6974 66.2095 71.6889 66.2091C71.6802 66.2087 71.6721 65.363 71.6707 64.3295C71.6687 62.7218 71.5902 62.2827 71.1269 61.2852C70.4367 59.7988 68.9644 58.3195 67.4207 57.5613L66.2114 56.9674L59.7381 56.8644L53.2648 56.7611L51.9499 56.1292C51.2267 55.7815 50.2253 55.1331 49.7247 54.6881C47.6443 52.8396 45.5348 51.6566 42.7369 50.7692C40.8457 50.1693 36.7054 50.021 34.654 50.4794ZM11.1693 64.1718C9.71161 64.4839 8.64796 65.1397 4.31022 68.4008C0.543958 71.2324 0.0552214 71.6656 0.00141187 72.2191C-0.0517908 72.7666 1.35656 74.7368 11.405 88.1703C17.7102 96.6 23.0121 103.611 23.1867 103.751C23.9171 104.335 24.5426 104.037 28.4068 101.261C30.5076 99.7511 32.659 98.0934 33.1873 97.5768C35.2983 95.5139 36.1404 92.1252 35.1787 89.5643C34.8704 88.7437 32.4785 85.3844 26.4656 77.3272C17.7994 65.7151 17.3406 65.1854 15.3351 64.4803C14.2015 64.0816 12.2615 63.9379 11.1693 64.1718ZM14.0202 67.2501C14.4653 67.3738 15.096 67.6656 15.4221 67.8985C16.1052 68.3864 31.3797 88.8205 32.0705 90.171C32.6964 91.3945 32.6662 92.5287 31.9736 93.8191C31.5021 94.6977 30.9019 95.2427 28.0328 97.3982C26.1713 98.7968 24.5677 99.941 24.4692 99.941C24.2827 99.941 4.28433 73.3487 4.09155 72.8444C4.0171 72.6497 5.07913 71.7499 7.38263 70.0565C11.5652 66.9815 12.1563 66.7315 14.0202 67.2501Z" fill="white"/>
</svg>
