<svg width="110" height="101" viewBox="0 0 110 101" fill="none" xmlns="http://www.w3.org/2000/svg">
<path id="house (2) 1 (Traced)" fill-rule="evenodd" clip-rule="evenodd" d="M37.5158 9.69395C26.5176 16.9117 22.6834 19.5337 22.5051 19.9585C22.058 21.0234 23.1788 22.305 24.2611 21.9661C24.491 21.8942 30.9875 17.7091 38.6981 12.6662C46.4087 7.62305 52.843 3.42143 52.9968 3.32913C53.3991 3.08788 102.778 35.4834 103.112 36.2084C103.46 36.9621 103.42 37.8184 103.009 38.397C102.562 39.0272 101.428 39.4981 100.76 39.3315C100.475 39.2606 89.9101 32.4267 77.2825 24.1452C57.8301 11.3878 54.1836 9.07247 53.4099 8.98632C52.5061 8.88575 52.2661 9.03597 29.5972 23.8961C17.0026 32.1523 6.40757 39.0283 6.05275 39.1758C5.16441 39.5454 4.31993 39.3372 3.68491 38.5927C3.0759 37.8785 2.97311 36.654 3.46814 36.0089C3.63588 35.7904 6.75358 33.6421 10.3966 31.2349C17.5273 26.5227 17.7881 26.2842 17.1137 25.093C16.8662 24.6559 16.5996 24.5083 15.9637 24.4565C15.2029 24.3943 14.6304 24.7202 8.88036 28.4879C5.43966 30.7424 2.25186 32.9145 1.79639 33.3151C-1.85096 36.5214 0.426565 42.4574 5.3001 42.4465C6.77229 42.4434 7.6258 42.0676 10.536 40.141C11.788 39.3122 12.8638 38.6341 12.9271 38.6341C12.9901 38.6341 13.0417 50.5693 13.0417 65.1568V91.6795H9.85515C6.02093 91.6795 4.89668 91.942 3.7477 93.1054C1.89617 94.9802 1.7865 97.5296 3.47373 99.4744C4.94291 101.168 0.368287 101.032 53.6127 100.967L101.173 100.909L102.105 100.272C103.294 99.4583 104.222 97.7388 104.215 96.3626C104.206 94.3927 102.616 92.3969 100.672 91.9137C100.153 91.785 98.3203 91.6795 96.5984 91.6795H93.468V87.6767C93.468 83.9484 93.4375 83.6355 93.0222 83.1148C92.4842 82.4396 91.59 82.3762 90.8576 82.9609C90.3598 83.3581 90.3486 83.4475 90.2834 87.5229L90.2168 91.6795H82.8107H75.4043V85.9506V80.2217H91.1094C103.814 80.2217 106.947 80.1669 107.51 79.935C108.422 79.5592 109.517 78.3097 109.813 77.3078C109.978 76.7514 110.03 72.0911 109.984 61.974L109.919 47.4396L109.409 46.6297C109.128 46.1841 108.506 45.5635 108.027 45.2505L107.155 44.6812L91.3094 44.6229L75.4639 44.5645L75.3566 42.1828C75.2248 39.2574 74.7386 37.9648 73.3001 36.7155C72.3062 35.8521 70.7241 35.2391 69.4906 35.2391C68.2571 35.2391 66.6751 35.8521 65.6811 36.7155C64.2427 37.9648 63.7565 39.2574 63.6247 42.1828L63.5174 44.5645L47.6719 44.6229L31.8264 44.6812L30.9546 45.2505C30.4753 45.5635 29.8534 46.1841 29.5727 46.6297L29.0624 47.4396L28.9971 61.974C28.9515 72.0911 29.0035 76.7514 29.168 77.3078C29.4179 78.1529 30.4282 79.4281 31.1886 79.8584C31.4642 80.0144 32.9543 80.1574 34.9761 80.2217L38.3093 80.3278L38.3665 86.0036L38.4239 91.6795H27.3455H16.2673V64.0152V36.351L34.7585 24.2405L53.2499 12.1302L71.746 24.2558L90.2423 36.3813V38.6648C90.2423 39.9205 90.3516 41.1849 90.4854 41.4741C90.8206 42.2002 91.7272 42.5501 92.4414 42.229C93.1702 41.9014 93.468 41.1942 93.468 39.7911C93.468 39.1548 93.5142 38.6341 93.5706 38.6341C93.6269 38.6341 94.8301 39.3884 96.2444 40.3105C99.2284 42.2558 99.9421 42.5333 101.646 42.4117C104.954 42.1758 107.211 38.9559 106.281 35.7995C106.086 35.1379 105.62 34.2555 105.236 33.8228C104.829 33.3639 94.1987 26.2533 79.4902 16.6013C55.7943 1.052 54.3793 0.157439 53.3624 0.0808414L52.2871 0L37.5158 9.69395ZM51.5345 19.1348C45.998 20.0781 42.2766 25.7309 43.6837 31.0607C44.5619 34.3875 46.9093 36.9018 50.1707 38.009C51.7246 38.5365 54.6743 38.5696 56.1429 38.0758C59.8489 36.8299 62.4073 33.8623 62.9929 30.1302C63.7249 25.4639 60.6689 20.738 56.0704 19.4252C54.6374 19.0162 52.8882 18.9041 51.5345 19.1348ZM51.7495 24.7362V27.1762H49.1662H46.5827L46.9181 26.3806C47.6409 24.6657 48.7114 23.5475 50.4539 22.6873C51.7463 22.0491 51.7495 22.0542 51.7495 24.7362ZM56.2188 22.8119C57.8499 23.6411 59.272 25.2274 59.6089 26.5927L59.7528 27.1762H57.2564H54.7601V24.7362C54.7601 23.1985 54.8423 22.2961 54.9823 22.2961C55.1046 22.2961 55.661 22.5282 56.2188 22.8119ZM51.7495 32.8133C51.7495 35.2593 51.7478 35.2672 51.2657 35.1254C49.3281 34.5551 46.8035 31.9822 46.8035 30.5779C46.8035 30.44 47.7198 30.359 49.2765 30.359H51.7495V32.8133ZM59.7061 30.5453C59.7061 31.5523 58.0331 33.6792 56.6061 34.4861C54.7124 35.5572 54.7601 35.6003 54.7601 32.8133V30.359H57.2331C58.5933 30.359 59.7061 30.4428 59.7061 30.5453ZM70.9712 38.8649C71.9439 39.6199 72.1787 40.3364 72.1787 42.5488V44.5751H69.4906H66.8026V42.5488C66.8026 40.3364 67.0374 39.6199 68.0101 38.8649C68.3847 38.5742 68.8937 38.4219 69.4906 38.4219C70.0876 38.4219 70.5966 38.5742 70.9712 38.8649ZM106.543 48.0125C106.738 48.2054 106.801 51.6964 106.801 62.4258C106.801 75.0143 106.763 76.6212 106.463 76.9178C106.158 77.2182 102.508 77.2511 69.4906 77.2511C36.4735 77.2511 32.8231 77.2182 32.5184 76.9178C32.218 76.6212 32.1806 75.0143 32.1806 62.4258C32.1806 51.6964 32.2431 48.2054 32.4386 48.0125C32.8139 47.6422 106.167 47.6422 106.543 48.0125ZM44.4682 54.518C44.0155 54.9646 44.008 55.0928 44.008 62.3984C44.008 69.5419 44.0243 69.8409 44.438 70.2491C44.9526 70.7569 45.8821 70.7983 46.5405 70.3431C46.9971 70.0278 47.0186 69.8746 47.0186 66.9482V63.8837H47.9656H48.9127L50.7074 67.2255C52.4388 70.4492 52.5278 70.5697 53.2245 70.6357C54.0509 70.7136 54.9752 70.0278 54.9752 69.3365C54.9752 68.9716 53.4944 66.046 52.3609 64.1712L51.9573 63.5039L52.8772 62.9719C55.2332 61.6095 55.6891 57.5861 53.7088 55.6321C52.6321 54.5697 51.7001 54.331 48.0701 54.1878C45.0602 54.069 44.9092 54.0828 44.4682 54.518ZM58.2008 54.3979L57.6632 54.6661L57.6065 62.4046C57.5544 69.4912 57.5804 70.1653 57.9163 70.4083C58.1819 70.6003 59.5139 70.6735 62.7426 70.6735C66.5099 70.6735 67.2544 70.6217 67.54 70.3402C67.9275 69.9576 67.9799 69.1365 67.6552 68.5377C67.4494 68.1583 67.1735 68.1273 63.9995 68.1273H60.5663V65.8994V63.6715H62.2387C64.1804 63.6715 64.8672 63.3469 64.8672 62.4288C64.8672 61.4932 64.5236 61.3375 62.4587 61.3375H60.5663V59.1096V56.8817H63.792C66.731 56.8817 67.0559 56.8439 67.4477 56.4573C67.6843 56.2239 67.8778 55.7943 67.8778 55.5025C67.8778 55.2108 67.6843 54.7811 67.4477 54.5477C67.0471 54.1524 66.7333 54.1235 62.878 54.1265C59.9734 54.1286 58.578 54.2097 58.2008 54.3979ZM71.0142 54.3603C70.6695 54.4535 70.3082 54.6531 70.2113 54.804C70.1143 54.9547 70.0334 58.396 70.0315 62.4515C70.0285 69.5441 70.0446 69.8409 70.4583 70.2491C70.9888 70.7726 71.9798 70.7972 72.5849 70.3022C73.0173 69.9485 73.0412 69.7174 73.0926 65.4052L73.1464 60.8796L75.6966 65.5784C78.3309 70.4323 78.5266 70.6735 79.8267 70.6735C80.1147 70.6735 80.5439 70.4825 80.7804 70.2491C81.194 69.8411 81.2105 69.5419 81.2105 62.4389C81.2105 56.7722 81.1464 54.9667 80.9353 54.6816C80.6071 54.239 79.01 54.1486 78.5255 54.5454C78.2672 54.7567 78.1973 55.6587 78.1502 59.3975L78.0924 63.9898L75.8482 59.7099C74.6138 57.3557 73.4522 55.2313 73.2668 54.9888C72.8371 54.4267 71.8198 54.1428 71.0142 54.3603ZM84.0061 54.278C83.5197 54.4607 83.3678 54.786 83.3642 55.6542C83.3599 56.6841 83.7549 56.8817 85.8198 56.8817H87.4468V63.3532C87.4468 69.5419 87.4655 69.8432 87.8769 70.2491C88.3444 70.7104 89.3716 70.8076 90.0415 70.4539C90.4391 70.2438 90.4574 69.9415 90.4574 63.558V56.8817H92.2519C93.7175 56.8817 94.1118 56.8106 94.4024 56.4936C94.8851 55.9674 94.8507 55.0633 94.3282 54.5477C93.9228 54.1477 93.6237 54.1244 89.1134 54.1401C86.4817 54.1492 84.1835 54.2114 84.0061 54.278ZM51.1749 57.3152C51.8102 57.8083 52.0822 58.8482 51.8693 59.9685C51.6525 61.1086 50.7674 61.548 48.6852 61.5488L47.0186 61.5497V59.2157V56.8817H48.8174C50.3034 56.8817 50.7135 56.957 51.1749 57.3152ZM63.5769 85.9506V91.6795H52.5022H41.4274V86.0921C41.4274 83.0189 41.492 80.4409 41.5709 80.3632C41.6496 80.2853 46.6332 80.2217 52.6456 80.2217H63.5769V85.9506ZM72.1273 89.1864L72.1834 98.0449H69.493H66.8026V89.2748C66.8026 84.4511 66.8701 80.4381 66.9525 80.3568C67.0348 80.2754 68.2202 80.2357 69.5868 80.2684L72.0712 80.3278L72.1273 89.1864ZM63.5769 96.4559V98.0496L34.9987 97.9942C7.23936 97.9403 6.40736 97.9272 5.96781 97.5346C5.37709 97.0072 5.36569 95.8584 5.94523 95.2866C6.37102 94.8665 6.66197 94.8622 34.9761 94.8622H63.5769V96.4559ZM100.524 95.2949C101.144 95.8652 101.153 96.9885 100.542 97.5346C100.11 97.9208 99.5374 97.9414 87.747 97.997L75.4043 98.0551V96.4587V94.8622H87.7287C99.8346 94.8622 100.062 94.8699 100.524 95.2949Z" fill="white"/>
</svg>
