<svg width="119" height="86" viewBox="0 0 119 86" fill="none" xmlns="http://www.w3.org/2000/svg">
<path id="sale 1 (Traced)" fill-rule="evenodd" clip-rule="evenodd" d="M51.869 10.4852L33.8923 20.9566H19.7671C11.2678 20.9566 5.14325 21.0511 4.3897 21.1939C2.69388 21.5153 1.4434 22.4507 0.649182 23.9917L0 25.2515V41.6913V58.131L0.649182 59.3909C1.4434 60.9319 2.69388 61.8673 4.3897 62.1887C5.11954 62.327 10.2818 62.4259 16.7667 62.4259H27.8918V72.4398V82.4537H14.4198H0.947856L0.473928 82.9695C-0.392809 83.9125 -0.0153405 85.2539 1.25443 85.7432C2.14279 86.0856 116.862 86.0856 117.751 85.7432C119.02 85.2539 119.398 83.9125 118.531 82.9695C118.07 82.4679 117.911 82.4537 112.72 82.4537H107.383V58.8916C107.383 45.9325 107.427 35.3295 107.481 35.3295C107.535 35.3295 108.575 35.9127 109.793 36.6254C112.327 38.1084 113.143 38.2435 113.875 37.3005C114.331 36.7119 114.356 36.3882 114.356 31.0827C114.356 26.0944 114.312 25.4327 113.95 24.9999C113.726 24.7329 111.085 23.0914 108.081 21.352C105.077 19.6129 95.5759 14.0942 86.9682 9.08817C75.1163 2.19555 71.1392 -0.010331 70.5818 3.63412e-05C70.0505 0.00993242 64.8426 2.9281 51.869 10.4852ZM90.7678 15.3861L110.754 27.0161L110.819 30.095L110.883 33.1741L100.243 26.9892C94.3905 23.5876 85.4702 18.3999 80.4199 15.4613C74.959 12.2834 70.9946 10.1181 70.6383 10.1181C70.282 10.1181 66.1775 12.361 60.5059 15.6552L50.9725 21.1923H45.9015C43.1123 21.1923 40.9052 21.1126 40.9963 21.0155C41.2585 20.7361 70.2836 3.80697 70.5463 3.78034C70.676 3.76715 79.7757 8.98969 90.7678 15.3861ZM87.2781 23.5096L103.781 33.1173V57.7267V82.3359H94.0186H84.2565L84.1967 66.8596L84.137 51.3833L83.5262 50.8963C82.9388 50.4279 82.6408 50.4093 75.7413 50.4093H68.5673V37.8304V25.2515L67.9182 23.9917C67.5133 23.2064 66.8934 22.4641 66.2721 22.0209C65.2931 21.3228 65.2124 21.308 61.7496 21.1923L58.2241 21.0745L64.3836 17.4878C67.7713 15.5152 70.5953 13.9014 70.6592 13.9014C70.7231 13.9017 78.2016 18.2253 87.2781 23.5096ZM64.6069 25.2424C65.0743 25.7508 65.0809 25.977 65.0734 41.6769C65.0653 59.1209 65.1394 58.2335 63.6558 58.665C62.6006 58.9717 5.96675 58.9717 4.91151 58.665C3.4279 58.2335 3.50205 59.1209 3.49391 41.6769C3.48647 25.977 3.49298 25.7508 3.9604 25.2424L4.43433 24.7266H34.2837H64.133L64.6069 25.2424ZM12.4781 33.6842C8.73432 34.8234 8.07932 40.6058 11.4545 42.721C12.3633 43.2907 12.8837 43.4262 14.649 43.5527C16.9006 43.7141 17.1897 43.8797 17.1965 45.0124C17.2032 46.2004 16.647 46.4037 13.3895 46.4037C11.761 46.4037 10.2375 46.5076 10.0036 46.6344C8.89307 47.2369 9.10551 49.5264 10.3002 49.8303C10.6121 49.9098 12.3184 49.9399 14.0919 49.8975C17.8421 49.8077 18.7156 49.496 19.8729 47.8351C20.5042 46.9292 20.5702 46.6598 20.5702 44.99C20.5702 43.3209 20.504 43.0504 19.8729 42.142C18.8335 40.6458 17.5298 40.0419 15.34 40.0419C13.4838 40.0419 13.0757 39.8478 12.7038 38.788C12.5478 38.3441 12.893 37.4628 13.3416 37.1591C13.4822 37.0639 14.9635 36.9845 16.633 36.9824C19.3643 36.9793 19.7202 36.9306 20.1776 36.4984C20.5095 36.1851 20.6864 35.7379 20.6864 35.2117C20.6864 34.6856 20.5095 34.2384 20.1776 33.925C19.7135 33.4865 19.3841 33.4462 16.4006 33.4648C14.6032 33.4759 12.8379 33.5746 12.4781 33.6842ZM26.7729 33.8569C26.4765 34.1151 25.3708 36.8771 23.8142 41.2476C21.4732 47.82 21.3472 48.2651 21.6473 48.8999C22.0724 49.7992 23.0735 50.1562 23.8751 49.6946C24.535 49.3148 24.7066 49.0686 25.2244 47.7585L25.5738 46.875H27.8634H30.1529L30.558 47.9942C31.2474 49.8987 32.3315 50.4253 33.555 49.4496C33.9422 49.1409 34.1674 48.7309 34.1674 48.3353C34.1674 47.9909 33.1138 44.7383 31.8259 41.107C29.3963 34.2563 28.9687 33.4446 27.7884 33.4446C27.4902 33.4446 27.0332 33.63 26.7729 33.8569ZM35.4354 34.023L34.8647 34.6012V41.6913V48.7814L35.4354 49.3596C36.0027 49.935 36.0299 49.938 40.6337 49.938C44.9637 49.938 45.3009 49.9067 45.8739 49.4496C46.7209 48.7743 46.7209 47.5674 45.8739 46.8922C45.3167 46.4478 44.95 46.4037 41.8063 46.4037H38.3512V40.4126V34.4212L37.7388 33.933C36.9264 33.285 36.1324 33.3161 35.4354 34.023ZM48.3862 33.9898C47.8902 34.5251 47.8809 34.6674 47.8809 41.7243V48.9133L48.4188 49.4258C48.9348 49.9168 49.1477 49.9378 53.5904 49.9305C58.5337 49.9225 58.8119 49.8633 59.2368 48.7305C59.4988 48.0323 59.0558 46.7873 58.4633 46.5569C58.2469 46.4725 56.5618 46.4037 54.7186 46.4037H51.3674V45.0117V43.6194L54.8478 43.539C58.0647 43.4646 58.3668 43.4193 58.838 42.9415C59.4637 42.3065 59.5044 41.1661 58.9242 40.5163C58.5349 40.0801 58.2132 40.0419 54.9341 40.0419H51.3674V38.5104V36.9789L54.7958 36.9713C58.4519 36.9633 58.828 36.8618 59.2368 35.7713C59.4988 35.0732 59.0558 33.8281 58.4633 33.5977C58.2469 33.5134 56.0049 33.4446 53.4809 33.4446C48.9843 33.4446 48.8815 33.4556 48.3862 33.9898ZM28.442 42.0278C28.6507 42.6665 28.8215 43.2231 28.8215 43.2648C28.8215 43.3065 28.4031 43.3406 27.8918 43.3406C27.3804 43.3406 26.9621 43.2704 26.9621 43.1847C26.9621 42.6861 27.7728 40.537 27.9043 40.6868C27.9913 40.7858 28.2332 41.3892 28.442 42.0278ZM80.6538 68.1987V82.4537H70.6592H60.6647V72.4398V62.4259H61.7952C64.9381 62.4259 66.8397 61.4835 67.9182 59.3909C68.4869 58.287 68.5673 57.8714 68.5673 56.0373V53.9436H74.6106H80.6538V68.1987ZM37.1891 72.4398V82.4537H34.2837H31.3783V72.4398V62.4259H34.2837H37.1891V72.4398ZM57.1226 72.3809L57.062 82.3359L48.8688 82.3979L40.6755 82.4599V72.4429V62.4259H48.9294H57.1833L57.1226 72.3809ZM76.1527 65.5062C75.5728 65.9685 75.5403 66.1061 75.5403 68.0981C75.5403 70.5318 75.8834 71.1439 77.2475 71.1439C78.4015 71.1439 78.8713 70.4774 78.984 68.6798C79.1 66.8337 78.7432 65.6485 77.9632 65.288C77.1469 64.911 76.8549 64.9462 76.1527 65.5062Z" fill="white"/>
</svg>
